<mxfile host="app.diagrams.net" modified="2020-10-07T19:39:45.834Z" agent="5.0 (Windows NT 10.0; Win64; x64) AppleWebKit/537.36 (KHTML, like Gecko) Chrome/85.0.4183.121 Safari/537.36" etag="yZ3sWG9pFfrhJDFvlIyy" version="13.7.7" type="github">
  <diagram id="QpmHISXzCMV9x8H14dAg" name="Page-1">
    <mxGraphModel dx="2175" dy="1390" grid="1" gridSize="10" guides="1" tooltips="1" connect="1" arrows="1" fold="1" page="1" pageScale="1" pageWidth="1169" pageHeight="827" math="1" shadow="0">
      <root>
        <mxCell id="0" />
        <mxCell id="1" parent="0" />
        <mxCell id="6RJOtlt90jfbvBGePQ3--1" value="" style="ellipse;whiteSpace=wrap;html=1;aspect=fixed;fillColor=#0050ef;strokeColor=#001DBC;fontColor=#ffffff;" vertex="1" parent="1">
          <mxGeometry x="220" y="190" width="30" height="30" as="geometry" />
        </mxCell>
        <mxCell id="6RJOtlt90jfbvBGePQ3--2" value="" style="ellipse;whiteSpace=wrap;html=1;aspect=fixed;fillColor=#0050ef;strokeColor=#001DBC;fontColor=#ffffff;" vertex="1" parent="1">
          <mxGeometry x="420" y="190" width="30" height="30" as="geometry" />
        </mxCell>
        <mxCell id="6RJOtlt90jfbvBGePQ3--3" value="" style="ellipse;whiteSpace=wrap;html=1;aspect=fixed;fillColor=#647687;strokeColor=#314354;fontColor=#ffffff;" vertex="1" parent="1">
          <mxGeometry x="320" y="280" width="30" height="30" as="geometry" />
        </mxCell>
        <mxCell id="6RJOtlt90jfbvBGePQ3--4" value="" style="ellipse;whiteSpace=wrap;html=1;aspect=fixed;fillColor=#0050ef;strokeColor=#001DBC;fontColor=#ffffff;" vertex="1" parent="1">
          <mxGeometry x="220" y="390" width="30" height="30" as="geometry" />
        </mxCell>
        <mxCell id="6RJOtlt90jfbvBGePQ3--6" value="" style="ellipse;whiteSpace=wrap;html=1;aspect=fixed;fillColor=#0050ef;strokeColor=#001DBC;fontColor=#ffffff;" vertex="1" parent="1">
          <mxGeometry x="420" y="390" width="30" height="30" as="geometry" />
        </mxCell>
        <mxCell id="6RJOtlt90jfbvBGePQ3--7" value="" style="ellipse;whiteSpace=wrap;html=1;aspect=fixed;fillColor=#e51400;strokeColor=#B20000;fontColor=#ffffff;" vertex="1" parent="1">
          <mxGeometry x="180" y="150" width="30" height="30" as="geometry" />
        </mxCell>
        <mxCell id="6RJOtlt90jfbvBGePQ3--8" value="" style="ellipse;whiteSpace=wrap;html=1;aspect=fixed;fillColor=#e51400;strokeColor=#B20000;fontColor=#ffffff;" vertex="1" parent="1">
          <mxGeometry x="460" y="430" width="30" height="30" as="geometry" />
        </mxCell>
        <mxCell id="6RJOtlt90jfbvBGePQ3--9" value="" style="ellipse;whiteSpace=wrap;html=1;aspect=fixed;fillColor=#e51400;strokeColor=#B20000;fontColor=#ffffff;" vertex="1" parent="1">
          <mxGeometry x="460" y="150" width="30" height="30" as="geometry" />
        </mxCell>
        <mxCell id="6RJOtlt90jfbvBGePQ3--10" value="" style="ellipse;whiteSpace=wrap;html=1;aspect=fixed;fillColor=#e51400;strokeColor=#B20000;fontColor=#ffffff;" vertex="1" parent="1">
          <mxGeometry x="180" y="430" width="30" height="30" as="geometry" />
        </mxCell>
        <mxCell id="6RJOtlt90jfbvBGePQ3--11" value="" style="endArrow=none;dashed=1;html=1;exitX=1;exitY=0;exitDx=0;exitDy=0;entryX=0;entryY=1;entryDx=0;entryDy=0;" edge="1" parent="1" source="6RJOtlt90jfbvBGePQ3--3" target="6RJOtlt90jfbvBGePQ3--2">
          <mxGeometry width="50" height="50" relative="1" as="geometry">
            <mxPoint x="430" y="300" as="sourcePoint" />
            <mxPoint x="480" y="250" as="targetPoint" />
          </mxGeometry>
        </mxCell>
        <mxCell id="6RJOtlt90jfbvBGePQ3--12" value="" style="endArrow=none;dashed=1;html=1;exitX=0;exitY=0;exitDx=0;exitDy=0;entryX=1;entryY=1;entryDx=0;entryDy=0;" edge="1" parent="1" source="6RJOtlt90jfbvBGePQ3--3" target="6RJOtlt90jfbvBGePQ3--1">
          <mxGeometry width="50" height="50" relative="1" as="geometry">
            <mxPoint x="355.6066017177982" y="294.3933982822018" as="sourcePoint" />
            <mxPoint x="444.3933982822018" y="225.60660171779818" as="targetPoint" />
          </mxGeometry>
        </mxCell>
        <mxCell id="6RJOtlt90jfbvBGePQ3--13" value="" style="endArrow=none;dashed=1;html=1;exitX=1;exitY=1;exitDx=0;exitDy=0;entryX=0;entryY=0;entryDx=0;entryDy=0;" edge="1" parent="1" source="6RJOtlt90jfbvBGePQ3--3" target="6RJOtlt90jfbvBGePQ3--6">
          <mxGeometry width="50" height="50" relative="1" as="geometry">
            <mxPoint x="365.6066017177982" y="304.3933982822018" as="sourcePoint" />
            <mxPoint x="454.3933982822018" y="235.60660171779818" as="targetPoint" />
          </mxGeometry>
        </mxCell>
        <mxCell id="6RJOtlt90jfbvBGePQ3--14" value="" style="endArrow=none;dashed=1;html=1;exitX=0;exitY=1;exitDx=0;exitDy=0;entryX=1;entryY=0;entryDx=0;entryDy=0;" edge="1" parent="1" source="6RJOtlt90jfbvBGePQ3--3" target="6RJOtlt90jfbvBGePQ3--4">
          <mxGeometry width="50" height="50" relative="1" as="geometry">
            <mxPoint x="375.6066017177982" y="314.3933982822018" as="sourcePoint" />
            <mxPoint x="464.3933982822018" y="245.60660171779818" as="targetPoint" />
          </mxGeometry>
        </mxCell>
        <mxCell id="6RJOtlt90jfbvBGePQ3--19" value="" style="endArrow=none;html=1;exitX=0;exitY=0;exitDx=0;exitDy=0;entryX=1;entryY=1;entryDx=0;entryDy=0;" edge="1" parent="1" source="6RJOtlt90jfbvBGePQ3--1" target="6RJOtlt90jfbvBGePQ3--7">
          <mxGeometry width="50" height="50" relative="1" as="geometry">
            <mxPoint x="430" y="300" as="sourcePoint" />
            <mxPoint x="480" y="250" as="targetPoint" />
          </mxGeometry>
        </mxCell>
        <mxCell id="6RJOtlt90jfbvBGePQ3--20" value="" style="endArrow=none;html=1;exitX=1;exitY=0;exitDx=0;exitDy=0;entryX=0;entryY=1;entryDx=0;entryDy=0;" edge="1" parent="1" source="6RJOtlt90jfbvBGePQ3--2" target="6RJOtlt90jfbvBGePQ3--9">
          <mxGeometry width="50" height="50" relative="1" as="geometry">
            <mxPoint x="430" y="300" as="sourcePoint" />
            <mxPoint x="480" y="250" as="targetPoint" />
          </mxGeometry>
        </mxCell>
        <mxCell id="6RJOtlt90jfbvBGePQ3--21" value="" style="endArrow=none;html=1;exitX=1;exitY=1;exitDx=0;exitDy=0;entryX=0;entryY=0;entryDx=0;entryDy=0;" edge="1" parent="1" source="6RJOtlt90jfbvBGePQ3--6" target="6RJOtlt90jfbvBGePQ3--8">
          <mxGeometry width="50" height="50" relative="1" as="geometry">
            <mxPoint x="430" y="300" as="sourcePoint" />
            <mxPoint x="480" y="250" as="targetPoint" />
          </mxGeometry>
        </mxCell>
        <mxCell id="6RJOtlt90jfbvBGePQ3--22" value="" style="endArrow=none;html=1;exitX=0;exitY=1;exitDx=0;exitDy=0;entryX=1;entryY=0;entryDx=0;entryDy=0;" edge="1" parent="1" source="6RJOtlt90jfbvBGePQ3--4" target="6RJOtlt90jfbvBGePQ3--10">
          <mxGeometry width="50" height="50" relative="1" as="geometry">
            <mxPoint x="430" y="300" as="sourcePoint" />
            <mxPoint x="480" y="250" as="targetPoint" />
          </mxGeometry>
        </mxCell>
        <mxCell id="6RJOtlt90jfbvBGePQ3--24" value="" style="shape=crossbar;whiteSpace=wrap;html=1;rounded=1;rotation=45;" vertex="1" parent="1">
          <mxGeometry x="208.79" y="148.79" width="60" height="20" as="geometry" />
        </mxCell>
        <mxCell id="6RJOtlt90jfbvBGePQ3--25" value="&lt;font style=&quot;font-size: 18px&quot;&gt;EPE&lt;/font&gt;" style="text;html=1;strokeColor=none;fillColor=none;align=center;verticalAlign=middle;whiteSpace=wrap;rounded=0;rotation=45;" vertex="1" parent="1">
          <mxGeometry x="240" y="128.79" width="40" height="20" as="geometry" />
        </mxCell>
        <mxCell id="6RJOtlt90jfbvBGePQ3--26" value="" style="shape=crossbar;whiteSpace=wrap;html=1;rounded=1;rotation=-45;" vertex="1" parent="1">
          <mxGeometry x="400" y="148.79" width="60" height="20" as="geometry" />
        </mxCell>
        <mxCell id="6RJOtlt90jfbvBGePQ3--27" value="&lt;font style=&quot;font-size: 18px&quot;&gt;EPE&lt;/font&gt;" style="text;html=1;strokeColor=none;fillColor=none;align=center;verticalAlign=middle;whiteSpace=wrap;rounded=0;rotation=45;" vertex="1" parent="1">
          <mxGeometry x="481.21000000000004" y="370" width="40" height="20" as="geometry" />
        </mxCell>
        <mxCell id="6RJOtlt90jfbvBGePQ3--30" value="" style="shape=crossbar;whiteSpace=wrap;html=1;rounded=1;rotation=45;" vertex="1" parent="1">
          <mxGeometry x="450" y="390" width="60" height="20" as="geometry" />
        </mxCell>
        <mxCell id="6RJOtlt90jfbvBGePQ3--31" value="&lt;font style=&quot;font-size: 18px&quot;&gt;EPE&lt;/font&gt;" style="text;html=1;strokeColor=none;fillColor=none;align=center;verticalAlign=middle;whiteSpace=wrap;rounded=0;rotation=-45;" vertex="1" parent="1">
          <mxGeometry x="390" y="130" width="40" height="20" as="geometry" />
        </mxCell>
        <mxCell id="6RJOtlt90jfbvBGePQ3--35" value="" style="shape=crossbar;whiteSpace=wrap;html=1;rounded=1;rotation=-45;" vertex="1" parent="1">
          <mxGeometry x="160" y="393.78999999999996" width="60" height="20" as="geometry" />
        </mxCell>
        <mxCell id="6RJOtlt90jfbvBGePQ3--36" value="&lt;font style=&quot;font-size: 18px&quot;&gt;EPE&lt;/font&gt;" style="text;html=1;strokeColor=none;fillColor=none;align=center;verticalAlign=middle;whiteSpace=wrap;rounded=0;rotation=-45;" vertex="1" parent="1">
          <mxGeometry x="150" y="375" width="40" height="20" as="geometry" />
        </mxCell>
        <mxCell id="6RJOtlt90jfbvBGePQ3--37" value="" style="ellipse;whiteSpace=wrap;html=1;aspect=fixed;fillColor=#e51400;strokeColor=#B20000;fontColor=#ffffff;" vertex="1" parent="1">
          <mxGeometry x="650" y="125" width="30" height="30" as="geometry" />
        </mxCell>
        <mxCell id="6RJOtlt90jfbvBGePQ3--38" value="" style="ellipse;whiteSpace=wrap;html=1;aspect=fixed;fillColor=#0050ef;strokeColor=#001DBC;fontColor=#ffffff;" vertex="1" parent="1">
          <mxGeometry x="650" y="200" width="30" height="30" as="geometry" />
        </mxCell>
        <mxCell id="6RJOtlt90jfbvBGePQ3--39" value="&lt;font style=&quot;font-size: 18px&quot;&gt;Ground Truth Position of Pixels&lt;/font&gt;" style="text;html=1;strokeColor=none;fillColor=none;align=center;verticalAlign=middle;whiteSpace=wrap;rounded=0;" vertex="1" parent="1">
          <mxGeometry x="690" y="205" width="280" height="20" as="geometry" />
        </mxCell>
        <mxCell id="6RJOtlt90jfbvBGePQ3--40" value="&lt;font style=&quot;font-size: 18px&quot;&gt;Predicted Position of Pixels&lt;/font&gt;" style="text;html=1;strokeColor=none;fillColor=none;align=center;verticalAlign=middle;whiteSpace=wrap;rounded=0;" vertex="1" parent="1">
          <mxGeometry x="690" y="130" width="240" height="20" as="geometry" />
        </mxCell>
        <mxCell id="6RJOtlt90jfbvBGePQ3--45" value="$$(x_{1},y_{1})$$" style="text;html=1;strokeColor=none;fillColor=none;align=center;verticalAlign=middle;whiteSpace=wrap;rounded=0;" vertex="1" parent="1">
          <mxGeometry x="130" y="195" width="110" height="20" as="geometry" />
        </mxCell>
        <mxCell id="6RJOtlt90jfbvBGePQ3--46" value="$$(x_{1}^{&#39;},y_{1}^{&#39;})$$" style="text;html=1;strokeColor=none;fillColor=none;align=center;verticalAlign=middle;whiteSpace=wrap;rounded=0;" vertex="1" parent="1">
          <mxGeometry x="90" y="155" width="110" height="20" as="geometry" />
        </mxCell>
        <mxCell id="6RJOtlt90jfbvBGePQ3--47" value="$$(x_{2}^{&#39;},y_{2}^{&#39;})$$" style="text;html=1;strokeColor=none;fillColor=none;align=center;verticalAlign=middle;whiteSpace=wrap;rounded=0;" vertex="1" parent="1">
          <mxGeometry x="470" y="155" width="110" height="20" as="geometry" />
        </mxCell>
        <mxCell id="6RJOtlt90jfbvBGePQ3--49" value="$$(x_{2},y_{2})$$" style="text;html=1;strokeColor=none;fillColor=none;align=center;verticalAlign=middle;whiteSpace=wrap;rounded=0;" vertex="1" parent="1">
          <mxGeometry x="430" y="195" width="110" height="20" as="geometry" />
        </mxCell>
        <mxCell id="6RJOtlt90jfbvBGePQ3--50" value="$$(x_{3},y_{3})$$" style="text;html=1;strokeColor=none;fillColor=none;align=center;verticalAlign=middle;whiteSpace=wrap;rounded=0;" vertex="1" parent="1">
          <mxGeometry x="230" y="394.99999999999994" width="110" height="20" as="geometry" />
        </mxCell>
        <mxCell id="6RJOtlt90jfbvBGePQ3--51" value="$$(x_{4},y_{4})$$" style="text;html=1;strokeColor=none;fillColor=none;align=center;verticalAlign=middle;whiteSpace=wrap;rounded=0;" vertex="1" parent="1">
          <mxGeometry x="330" y="394.99999999999994" width="110" height="20" as="geometry" />
        </mxCell>
        <mxCell id="6RJOtlt90jfbvBGePQ3--52" value="$$(x_{3}^{&#39;},y_{3}^{&#39;})$$" style="text;html=1;strokeColor=none;fillColor=none;align=center;verticalAlign=middle;whiteSpace=wrap;rounded=0;" vertex="1" parent="1">
          <mxGeometry x="190" y="435" width="110" height="20" as="geometry" />
        </mxCell>
        <mxCell id="6RJOtlt90jfbvBGePQ3--53" value="$$(x_{4}^{&#39;},y_{4}^{&#39;})$$" style="text;html=1;strokeColor=none;fillColor=none;align=center;verticalAlign=middle;whiteSpace=wrap;rounded=0;" vertex="1" parent="1">
          <mxGeometry x="371.21" y="435" width="110" height="20" as="geometry" />
        </mxCell>
      </root>
    </mxGraphModel>
  </diagram>
</mxfile>
